<svg width="23" height="18" viewBox="0 0 23 18" fill="none" xmlns="http://www.w3.org/2000/svg">
<path d="M23.0008 14.0234C22.8906 14.4526 22.7246 14.8497 22.3736 15.1489C22.0946 15.3866 21.7795 15.539 21.3762 15.5929V15.3014C21.3762 12.3239 21.3776 9.34566 21.3755 6.36816C21.3741 5.02168 20.5512 3.97372 19.267 3.69268C19.036 3.64235 18.7923 3.62906 18.5543 3.62836C16.0397 3.62417 13.525 3.62417 11.0104 3.62906C10.8536 3.62906 10.7483 3.58782 10.648 3.46687C10.2694 3.00826 9.87102 2.56502 9.49806 2.10152C9.20351 1.73588 8.8362 1.57998 8.36789 1.58208C6.49674 1.59047 4.6256 1.58557 2.75516 1.58557C2.66686 1.58557 2.57786 1.58557 2.46484 1.58557C2.5263 1.092 2.75445 0.719381 3.1154 0.420862C3.47564 0.123043 3.89875 0.00139821 4.36283 0.00209732C6.53347 0.00279643 8.70341 0.00349553 10.8741 0C11.0549 0 11.182 0.0671143 11.2957 0.20344C11.7627 0.762726 12.2423 1.31222 12.7063 1.87431C12.8137 2.00434 12.9253 2.04489 13.0885 2.04489C15.7154 2.04069 18.3424 2.04419 20.9693 2.03999C21.5139 2.03929 22.0027 2.17003 22.411 2.54335C22.7437 2.84816 22.9048 3.23896 23.0008 3.66402V14.0234Z" fill="#666666"/>
<path d="M10.2792 17.9993C7.52508 17.9993 4.77099 17.9965 2.01689 18.0014C1.35645 18.0028 0.800541 17.7994 0.38732 17.2716C0.0991258 16.9038 0.000235453 16.4809 0.000235453 16.0237C0.00164817 12.5127 0.000941812 9.00183 0.000941812 5.49022C0.000941812 5.09732 -0.00117727 4.70512 0.000941812 4.31222C0.00800541 3.17338 0.800541 2.38129 1.94908 2.37919C4.10418 2.375 6.25999 2.37919 8.41509 2.375C8.60652 2.375 8.73931 2.44281 8.85798 2.58473C9.33124 3.14891 9.81369 3.7054 10.2848 4.27098C10.3809 4.38563 10.4805 4.42478 10.6274 4.42478C13.284 4.42059 15.9414 4.42198 18.598 4.42198C19.4011 4.42198 20.0269 4.74287 20.3745 5.47274C20.4974 5.73141 20.5638 6.04182 20.5652 6.32845C20.5779 9.57999 20.5765 12.8322 20.5715 16.0838C20.5701 17.2268 19.7698 17.9951 18.586 17.9972C16.4309 18.0014 14.2751 17.9986 12.1199 17.9986C11.5061 17.9986 10.8923 17.9986 10.2792 17.9986V17.9993Z" fill="#666666"/>
</svg>
