<svg width="21" height="22" viewBox="0 0 21 22" xmlns="http://www.w3.org/2000/svg">
  <path d="M13.4962 22C13.2101 21.9788 12.9239 21.938 12.6383 21.9397C10.399 21.9552 8.17212 21.787 5.95256 21.5012C5.82468 21.4846 5.67314 21.5167 5.55766 21.577C5.24332 21.7417 4.91376 21.8209 4.56449 21.8221C3.69977 21.8244 2.83504 21.8272 1.97031 21.8221C1.01827 21.8157 0.315786 21.2808 0.0712962 20.3693C0.0200323 20.1787 0.00425885 19.9738 0.00425885 19.7752C-0.000811209 17.3684 -0.000811209 14.9622 0.00144215 12.5555C0.00256883 11.3334 0.798568 10.5229 1.99679 10.5189C2.81251 10.516 3.62766 10.5218 4.44337 10.5166C4.81349 10.5143 5.1729 10.5488 5.50696 10.7376C5.68385 10.446 5.83933 10.151 6.03199 9.88293C6.20099 9.64816 6.41732 9.44899 6.60153 9.22513C6.94798 8.80381 7.3288 8.40431 7.62117 7.94626C8.66617 6.3075 9.43738 4.52811 10.1201 2.7074C10.1692 2.57652 10.1517 2.41294 10.1416 2.26657C10.1055 1.74595 10.1376 1.23567 10.3427 0.750066C10.5556 0.243801 10.9916 -0.0271253 11.5319 0.00214854C13.0884 0.0865261 14.1469 1.1622 14.2618 2.75044C14.3351 3.7647 14.0883 4.7204 13.8185 5.68012C13.6236 6.37294 13.4669 7.07723 13.3047 7.77923C13.2703 7.9279 13.2839 8.08862 13.2743 8.26311C13.7323 8.17472 14.157 8.08001 14.5857 8.01285C15.8341 7.81884 17.0853 7.70576 18.337 7.98644C18.9077 8.11444 19.4423 8.33314 19.8676 8.7533C20.6084 9.48572 20.7735 10.3685 20.4687 11.3547C20.427 11.489 20.4315 11.5866 20.5121 11.7071C21.1593 12.6708 21.1639 13.754 20.5183 14.7183C20.4045 14.8882 20.3898 15.0288 20.4417 15.2274C20.7216 16.3025 20.4788 17.253 19.7251 18.0578C19.5826 18.2099 19.5347 18.3488 19.5437 18.5629C19.5876 19.5686 19.1848 20.3704 18.3945 20.9634C17.6143 21.5494 16.7061 21.7853 15.7631 21.9128C15.5276 21.9443 15.2916 21.9707 15.0561 21.9994H13.4951L13.4962 22ZM6.51703 20.3498C7.72539 20.4468 8.93432 20.5874 10.1472 20.631C11.8873 20.6936 13.6303 20.7102 15.3722 20.697C16.0668 20.6919 16.7473 20.503 17.3726 20.1621C18.1122 19.7591 18.4491 19.1622 18.2981 18.3729C18.2136 17.9309 18.3319 17.6457 18.666 17.3713C19.3279 16.8271 19.5212 16.0465 19.1792 15.294C18.9961 14.8916 19.0513 14.5863 19.3341 14.2614C19.9273 13.5789 19.9313 12.8614 19.3375 12.1806C19.0575 11.8598 19.022 11.5699 19.217 11.1922C19.631 10.3886 19.346 9.62004 18.4987 9.33361C18.052 9.18265 17.5692 9.11033 17.0971 9.07646C15.8296 8.98577 14.5931 9.23718 13.3627 9.51041C12.7329 9.65046 12.187 9.31123 12.1161 8.66548C12.067 8.21662 12.0524 7.74192 12.142 7.30454C12.3177 6.44584 12.5752 5.60436 12.8016 4.75656C12.9718 4.11828 13.0923 3.4754 13.0399 2.80842C12.9723 1.94283 12.5098 1.40098 11.7014 1.25346C11.4682 1.21099 11.4046 1.246 11.3888 1.48478C11.3702 1.76891 11.3815 2.05476 11.3741 2.34004C11.3691 2.53807 11.4006 2.75332 11.3364 2.93068C10.7252 4.61651 10.012 6.25699 9.13487 7.81826C8.68081 8.62702 8.19015 9.41627 7.50794 10.05C7.16318 10.3703 6.88376 10.733 6.69561 11.1595C6.5835 11.4138 6.50013 11.6927 6.4652 11.9688C6.43591 12.1967 6.51421 12.4361 6.51477 12.6708C6.51928 14.712 6.51759 16.7525 6.51759 18.7937V20.3503L6.51703 20.3498ZM1.22164 16.1607C1.22164 17.3845 1.21995 18.6083 1.2222 19.832C1.22333 20.3073 1.49148 20.5753 1.95679 20.5759C2.80011 20.5765 3.64287 20.5765 4.48619 20.5759C5.05122 20.5759 5.29852 20.3268 5.29909 19.754C5.29965 17.3564 5.30021 14.9588 5.29909 12.5612C5.29909 12.009 5.05347 11.7565 4.51717 11.7553C3.68118 11.7536 2.84518 11.7536 2.00918 11.7553C1.46725 11.7565 1.2222 12.0056 1.2222 12.5532C1.22164 13.7557 1.2222 14.9582 1.2222 16.1602L1.22164 16.1607Z" fill="red"/>
</svg>