<svg width="24" height="12" viewBox="0 0 24 12" fill="none" xmlns="http://www.w3.org/2000/svg">
<path d="M24 6.09392C23.8785 6.47418 23.5855 6.54789 23.2285 6.54789C16.2292 6.54496 9.22996 6.54555 2.23011 6.54555L1.88018 6.54555C1.98058 6.65378 2.03929 6.72164 2.1027 6.78482C3.48776 8.1672 4.8734 9.54959 6.25905 10.932C6.30308 10.9758 6.34947 11.0186 6.39057 11.0648C6.61368 11.3134 6.62014 11.6223 6.40877 11.8405C6.20092 12.0552 5.88622 12.0534 5.63199 11.8335C5.57914 11.7878 5.52983 11.7375 5.47992 11.6878C3.7508 9.96553 2.02109 8.24326 0.292556 6.52039C-0.094954 6.13429 -0.0973039 5.87103 0.284336 5.49077C2.04046 3.74041 3.79718 1.99006 5.55389 0.240286C5.83572 -0.04052 6.13692 -0.0762075 6.38059 0.138492C6.58491 0.318677 6.62542 0.611182 6.4669 0.832902C6.39937 0.927088 6.316 1.01133 6.2338 1.09382C4.85344 2.47035 3.47249 3.8463 2.09154 5.22225C2.03224 5.28134 1.97647 5.34276 1.87372 5.45099C2.0252 5.45099 2.12149 5.45099 2.21778 5.45099C9.22527 5.45099 16.2322 5.45157 23.2397 5.44806C23.5784 5.44806 23.852 5.52938 23.9994 5.8605L23.9994 6.09392L24 6.09392Z" fill="black"/>
</svg>
