<svg width="16" height="9" viewBox="0 0 16 9" fill="none" xmlns="http://www.w3.org/2000/svg">
<path d="M16 0.888756C15.9306 1.12242 15.7765 1.29264 15.6134 1.46098C13.2734 3.87113 10.9352 6.28316 8.59891 8.69707C8.39615 8.90687 8.1666 9.05887 7.87799 8.97784C7.71176 8.93073 7.54005 8.82898 7.41705 8.70398C6.1877 7.45022 4.96748 6.18642 3.74543 4.92513C2.58915 3.73231 1.43347 2.53949 0.275966 1.34729C0.0628534 1.12807 -0.0546634 0.88059 0.0251015 0.564011C0.160884 0.0263296 0.778302 -0.178441 1.19296 0.17771C1.24471 0.222307 1.29221 0.272558 1.34031 0.321553C3.51284 2.5621 5.68597 4.80328 7.85728 7.04508C7.90051 7.08968 7.93035 7.14935 7.97175 7.20965C8.04908 7.13365 8.09414 7.09093 8.13737 7.04634C10.3172 4.79762 12.4977 2.54954 14.6769 0.300197C14.8157 0.156982 14.9631 0.0370088 15.1664 0.00937095C15.5044 -0.0364827 15.8137 0.143792 15.944 0.469164C15.9616 0.512505 15.9811 0.555218 15.9994 0.597931V0.888127L16 0.888756Z" fill="white"/>
</svg>
