<svg width="5" height="20" viewBox="0 0 5 20" fill="none" xmlns="http://www.w3.org/2000/svg">
<path d="M8.79029e-06 2.50613C-0.00362885 1.14523 1.12222 0.0119108 2.48816 7.69647e-05C3.85591 -0.0108466 5.00904 1.1425 4.99995 2.51159C4.99085 3.87886 3.85773 5.00672 2.49725 5.00307C1.13495 5.00034 0.00364643 3.86975 8.79029e-06 2.50613Z" fill="#343434"/>
<path d="M2.49909 7.497C3.86138 7.497 4.99178 8.62395 4.99905 9.99031C5.00724 11.3594 3.85047 12.5137 2.48545 12.5C1.11951 12.4863 -0.00633901 11.3503 2.68639e-05 9.99122C0.00639274 8.62577 1.1377 7.497 2.49909 7.49609V7.497Z" fill="#343434"/>
<path d="M2.69071e-05 17.505C-0.00633897 16.145 1.11769 15.0099 2.48545 14.9962C3.85138 14.9817 5.00633 16.1341 4.99997 17.505C4.9936 18.8705 3.86229 20.0001 2.50091 20.0001C1.13952 19.9992 0.00639278 18.8695 2.69071e-05 17.505Z" fill="#343434"/>
</svg>
